<?xml version="1.0" standalone="no"?>
<!DOCTYPE svg PUBLIC "-//W3C//DTD SVG 20010904//EN"
 "http://www.w3.org/TR/2001/REC-SVG-20010904/DTD/svg10.dtd">
<svg version="1.0" xmlns="http://www.w3.org/2000/svg"
 width="200.000000pt" height="200.000000pt" viewBox="0 0 200.000000 200.000000"
 preserveAspectRatio="xMidYMid meet">
<metadata>
Created by potrace 1.11, written by Peter Selinger 2001-2013
</metadata>
<g transform="translate(0.000000,200.000000) scale(0.100000,-0.100000)"
fill="#000000" stroke="none">
<path d="M698 1435 c-5 -5 -61 -19 -279 -70 -36 -9 -74 -17 -85 -19 -56 -12
-75 -20 -70 -31 12 -32 97 -155 104 -151 5 3 19 7 33 10 13 3 53 12 89 20 36
9 72 15 80 16 15 0 54 -77 42 -84 -4 -2 -46 -12 -93 -21 -48 -10 -92 -20 -98
-24 -17 -11 47 -151 68 -151 9 0 32 4 51 10 19 5 46 11 60 14 14 2 39 8 56 11
28 6 31 4 46 -33 l15 -39 -121 -28 c-66 -15 -124 -29 -128 -32 -4 -2 9 -41 29
-86 20 -45 37 -83 37 -84 1 -1 73 16 161 38 88 21 168 39 177 39 10 0 22 -9
28 -19 8 -16 2 -35 -30 -96 -22 -42 -40 -79 -40 -84 0 -4 28 -7 63 -7 l62 1
20 42 c11 23 22 42 25 43 3 0 13 -19 23 -43 l17 -43 65 -1 c36 -1 65 2 65 5 0
4 -18 41 -39 81 -33 64 -37 79 -28 99 13 29 2 30 244 -27 l121 -28 35 81 c19
45 33 84 31 87 -2 3 -59 18 -127 34 l-124 28 15 39 c15 37 18 39 46 33 17 -3
42 -9 56 -11 14 -3 41 -9 60 -14 61 -17 65 -14 99 61 18 39 30 73 28 76 -5 4
-95 26 -148 37 -58 11 -60 14 -37 60 l21 43 111 -28 c60 -15 111 -27 112 -26
0 1 22 36 47 78 26 42 47 78 47 81 0 3 -53 18 -117 33 -65 15 -166 39 -226 54
-75 19 -110 24 -116 17 -4 -6 -43 -94 -86 -196 -72 -169 -111 -262 -135 -315
-5 -11 -20 -47 -34 -80 l-24 -60 -27 60 c-14 33 -76 177 -137 320 -105 248
-127 292 -140 280z"/>
</g>
</svg>
